<?xml version="1.0" encoding="UTF-8" standalone="no"?>
<!-- Created with Inkscape (http://www.inkscape.org/) -->

<svg
   xmlns:dc="http://purl.org/dc/elements/1.1/"
   xmlns:cc="http://creativecommons.org/ns#"
   xmlns:rdf="http://www.w3.org/1999/02/22-rdf-syntax-ns#"
   xmlns:svg="http://www.w3.org/2000/svg"
   xmlns="http://www.w3.org/2000/svg"
   xmlns:sodipodi="http://sodipodi.sourceforge.net/DTD/sodipodi-0.dtd"
   xmlns:inkscape="http://www.inkscape.org/namespaces/inkscape"
   width="220mm"
   height="60mm"
   viewBox="0 0 779.52756 212.59842"
   id="svg3521"
   version="1.1"
   inkscape:version="0.91 r13725"
   sodipodi:docname="logo.svg">
  <defs
     id="defs3523" />
  <sodipodi:namedview
     id="base"
     pagecolor="#ffffff"
     bordercolor="#666666"
     borderopacity="1.0"
     inkscape:pageopacity="0.0"
     inkscape:pageshadow="2"
     inkscape:zoom="0.98994949"
     inkscape:cx="447.29862"
     inkscape:cy="30.984505"
     inkscape:document-units="px"
     inkscape:current-layer="g3465"
     showgrid="false"
     inkscape:window-width="1366"
     inkscape:window-height="715"
     inkscape:window-x="-8"
     inkscape:window-y="-8"
     inkscape:window-maximized="1"
     showguides="true"
     inkscape:guide-bbox="true">
    <sodipodi:guide
       position="556.59403,-15.152288"
       orientation="1,0"
       id="guide4191" />
  </sodipodi:namedview>
  <metadata
     id="metadata3526">
    <rdf:RDF>
      <cc:Work
         rdf:about="">
        <dc:format>image/svg+xml</dc:format>
        <dc:type
           rdf:resource="http://purl.org/dc/dcmitype/StillImage" />
        <dc:title />
      </cc:Work>
    </rdf:RDF>
  </metadata>
  <g
     inkscape:label="Layer 1"
     inkscape:groupmode="layer"
     id="layer1"
     transform="translate(0,-839.76378)">
    <g
       transform="translate(-509.23853,-179.33346)"
       id="g3465">
      <g
         style="font-style:normal;font-variant:normal;font-weight:normal;font-stretch:normal;font-size:177.65292358px;line-height:125%;font-family:Consolas;-inkscape-font-specification:Consolas;letter-spacing:0px;word-spacing:0px;opacity:1;fill:#ff7d00;fill-opacity:1;stroke:none;stroke-width:1px;stroke-linecap:butt;stroke-linejoin:miter;stroke-opacity:1"
         id="text3467" />
      <g
         id="g4506">
        <path
           id="path4503"
           style="font-style:normal;font-variant:normal;font-weight:normal;font-stretch:normal;font-size:177.65292358px;line-height:125%;font-family:Consolas;-inkscape-font-specification:Consolas;letter-spacing:0px;word-spacing:0px;opacity:1;fill:#ff7d00;fill-opacity:1;stroke:none;stroke-width:1px;stroke-linecap:butt;stroke-linejoin:miter;stroke-opacity:1"
           d="m 642.93911,1154.7787 -16.82846,0 -7.89375,-24.7222 -47.18906,0 -7.9805,24.7222 -16.04775,0 37.64715,-113.3752 21.16568,0 37.12669,113.3752 z m -29.14619,-38.5146 -19.17055,-60.6345 -19.17056,60.6345 38.34111,0 z"
           transform="translate(0,4e-5)" />
        <g
           style="font-style:normal;font-variant:normal;font-weight:normal;font-stretch:normal;font-size:90px;line-height:125%;font-family:Consolas;-inkscape-font-specification:Consolas;letter-spacing:0px;word-spacing:0px;opacity:1;fill:#2f3d97;fill-opacity:1;stroke:none;stroke-width:1px;stroke-linecap:butt;stroke-linejoin:miter;stroke-opacity:1"
           id="g3471"
           transform="matrix(1.9739214,0,0,1.9739214,-1184.9969,-1021.7526)">
          <path
             d="m 999.80371,1073.3055 q 1.23049,1.5381 1.88969,3.6036 0.7031,2.0214 0.7031,4.3945 0,3.4277 -1.2744,6.2842 -1.2305,2.8125 -3.51565,4.834 -2.28516,2.0214 -5.49317,3.164 -3.16406,1.0986 -6.9873,1.0986 -2.76856,0 -5.18555,-0.5712 -2.41699,-0.6153 -3.82324,-1.4942 -0.83496,1.2305 -1.40625,2.3291 -0.57129,1.0987 -0.57129,2.461 0,1.6699 1.58203,2.7685 1.62598,1.0986 4.26269,1.1865 l 11.60157,0.4395 q 3.2959,0.088 6.06445,0.8349 2.81251,0.7471 4.79001,2.1534 2.0215,1.4062 3.1201,3.4716 1.1426,2.0655 1.1426,4.7901 0,2.9443 -1.2744,5.581 -1.2744,2.6368 -3.9551,4.6143 -2.63669,2.0215 -6.7236,3.208 -4.08691,1.1865 -9.71191,1.1865 -5.36133,0 -9.14063,-0.8789 -3.73535,-0.8349 -6.15234,-2.373 -2.417,-1.4942 -3.51563,-3.6035 -1.09863,-2.0655 -1.09863,-4.5703 0,-3.2081 1.49414,-5.625 1.49414,-2.417 4.61426,-4.6583 -1.14258,-0.5273 -1.97754,-1.3183 -0.83496,-0.791 -1.36231,-1.7139 -0.52734,-0.9668 -0.79101,-2.0215 -0.26367,-1.0547 -0.26367,-2.0654 0,-2.8564 1.31836,-5.2295 1.3623,-2.373 3.208,-4.4824 -0.83496,-1.0107 -1.49414,-1.9775 -0.61523,-0.9668 -1.09863,-2.0655 -0.43945,-1.1426 -0.70312,-2.417 -0.21973,-1.3183 -0.21973,-2.9882 0,-3.4278 1.23047,-6.2403 1.27441,-2.8564 3.51562,-4.8779 2.28516,-2.0215 5.44922,-3.1201 3.20801,-1.1426 7.0752,-1.1426 1.62597,0 3.12011,0.2197 1.49414,0.2197 2.63672,0.5713 l 15.99609,0 0,6.2402 -7.07519,0 z m -26.54297,44.253 q 0,3.1201 3.25196,4.5263 3.25195,1.4502 9.05273,1.4502 3.64746,0 6.1084,-0.6591 2.50488,-0.6592 3.99902,-1.7579 1.53809,-1.0546 2.19727,-2.4609 0.65918,-1.3623 0.65918,-2.8125 0,-2.6807 -2.19727,-3.9551 -2.19726,-1.2744 -6.72363,-1.4941 l -11.51367,-0.3955 q -1.4502,0.9668 -2.417,1.8896 -0.92285,0.9229 -1.45019,1.8457 -0.52734,0.9668 -0.74707,1.8897 -0.21973,0.9668 -0.21973,1.9336 z m 2.3291,-36.0791 q 0,2.1093 0.70313,3.8672 0.70312,1.7578 1.97754,2.9882 1.27441,1.2305 2.98828,1.9336 1.75781,0.6592 3.86719,0.6592 2.28515,0 4.04297,-0.7471 1.80175,-0.791 2.98828,-2.1093 1.23047,-1.3184 1.8457,-3.0323 0.65918,-1.7138 0.65918,-3.5595 0,-2.1094 -0.70313,-3.8672 -0.70312,-1.7578 -1.97753,-2.9883 -1.27442,-1.2305 -3.03223,-1.8896 -1.71387,-0.7032 -3.82324,-0.7032 -2.28516,0 -4.08692,0.791 -1.75781,0.7911 -2.98828,2.1094 -1.18652,1.2744 -1.8457,2.9883 -0.61524,1.7139 -0.61524,3.5596 z"
             style="fill:#2f3d97;fill-opacity:1"
             id="path3473"
             inkscape:connector-curvature="0" />
        </g>
        <g
           id="text3475"
           style="font-style:normal;font-variant:normal;font-weight:normal;font-stretch:normal;font-size:177.65292358px;line-height:125%;font-family:Consolas;-inkscape-font-specification:Consolas;letter-spacing:0px;word-spacing:0px;opacity:1;fill:#2f3d97;fill-opacity:1;stroke:none;stroke-width:1px;stroke-linecap:butt;stroke-linejoin:miter;stroke-opacity:1">
          <path
             id="path4500"
             style=""
             d="m 1003.9858,1081.5745 -25.7631,0 0,-12.4913 41.0302,0 0,74.5136 25.9366,0 0,12.578 -69.82937,0 0,-12.578 28.62567,0 0,-62.0223 z m 5.2915,-49.0107 q 2.5156,0 4.6842,0.9542 2.1686,0.8674 3.73,2.5155 1.6481,1.6482 2.5156,3.8168 0.9542,2.0819 0.9542,4.5975 0,2.4288 -0.9542,4.5974 -0.8675,2.1686 -2.5156,3.8168 -1.5614,1.6481 -3.73,2.6023 -2.1686,0.8675 -4.6842,0.8675 -2.5156,0 -4.6842,-0.8675 -2.1687,-0.9542 -3.8168,-2.6023 -1.5614,-1.6482 -2.51559,-3.8168 -0.86745,-2.1686 -0.86745,-4.5974 0,-2.5156 0.86745,-4.5975 0.95419,-2.1686 2.51559,-3.8168 1.6481,-1.6481 3.8168,-2.5155 2.1686,-0.9542 4.6842,-0.9542 z" />
        </g>
        <g
           id="text3479"
           style="font-style:normal;font-variant:normal;font-weight:normal;font-stretch:normal;font-size:177.65292358px;line-height:125%;font-family:Consolas;-inkscape-font-specification:Consolas;letter-spacing:0px;word-spacing:0px;opacity:1;fill:#ff0000;fill-opacity:1;stroke:none;stroke-width:1px;stroke-linecap:butt;stroke-linejoin:miter;stroke-opacity:1">
          <path
             id="path4497"
             style=""
             d="m 1119.1831,1131.8516 q 0,4.5975 -1.5614,8.2407 -1.5614,3.6433 -4.2505,6.5059 -2.689,2.7758 -6.2456,4.7709 -3.5565,1.9952 -7.6335,3.2963 -3.9902,1.3012 -8.2407,1.9084 -4.2505,0.6072 -8.3275,0.6072 -8.848,0 -16.308,-0.7807 -7.3733,-0.7807 -14.4863,-2.5156 l 0,-13.8791 q 7.6335,2.1686 15.1803,3.2963 7.5467,1.1277 15.0068,1.1277 10.843,0 16.0477,-2.9493 5.2047,-2.9494 5.2047,-8.4143 0,-2.3421 -0.8674,-4.1637 -0.7807,-1.9084 -2.9494,-3.5565 -2.1686,-1.7349 -6.766,-3.5566 -4.5108,-1.8216 -12.4045,-4.1637 -5.8986,-1.7349 -10.9298,-3.9035 -4.9445,-2.2554 -8.5878,-5.2914 -3.6432,-3.0361 -5.7251,-7.1131 -2.0819,-4.077 -2.0819,-9.6286 0,-3.6433 1.6482,-7.9805 1.7349,-4.3373 5.8119,-8.0673 4.077,-3.73 11.0165,-6.1589 6.9396,-2.5155 17.349,-2.5155 5.1179,0 11.3635,0.6072 6.2456,0.5204 13.0117,1.9083 l 0,13.4455 q -7.1131,-1.7349 -13.5322,-2.5156 -6.3323,-0.8675 -11.0165,-0.8675 -5.6384,0 -9.5419,0.8675 -3.8168,0.8674 -6.2457,2.4288 -2.3421,1.4747 -3.383,3.5565 -1.0409,1.9952 -1.0409,4.3373 0,2.3421 0.8674,4.2505 0.9542,1.9083 3.3831,3.73 2.5156,1.7349 6.9395,3.5565 4.424,1.7349 11.5371,3.8168 7.7202,2.2553 13.0116,4.7709 5.2915,2.4289 8.5878,5.4649 3.2963,3.0361 4.6842,6.8529 1.4746,3.8167 1.4746,8.6744 z" />
        </g>
        <g
           id="text3483"
           style="font-style:normal;font-variant:normal;font-weight:normal;font-stretch:normal;font-size:177.65292358px;line-height:125%;font-family:Consolas;-inkscape-font-specification:Consolas;letter-spacing:0px;word-spacing:0px;opacity:1;fill:#ff7d00;fill-opacity:1;stroke:none;stroke-width:1px;stroke-linecap:butt;stroke-linejoin:miter;stroke-opacity:1">
          <path
             id="path4494"
             style=""
             d="m 676.69489,1044.6131 -25.76314,0 0,-12.4045 41.03019,0 0,109.9921 25.93663,0 0,12.578 -69.82939,0 0,-12.578 28.62571,0 0,-97.5876 z" />
        </g>
        <g
           id="text3487"
           style="font-style:normal;font-variant:normal;font-weight:normal;font-stretch:normal;font-size:177.65292358px;line-height:125%;font-family:Consolas;-inkscape-font-specification:Consolas;letter-spacing:0px;word-spacing:0px;opacity:1;fill:#2f3d97;fill-opacity:1;stroke:none;stroke-width:1px;stroke-linecap:butt;stroke-linejoin:miter;stroke-opacity:1">
          <path
             id="path4491"
             style=""
             d="m 902.0252,1068.8436 13.79239,0 0.43372,16.0478 q 7.72027,-9.2817 15.18031,-13.4455 7.54678,-4.1637 15.1803,-4.1637 13.53216,0 20.47173,8.7612 7.02631,8.7612 6.50584,26.0234 l -15.26705,0 q 0.26024,-11.4503 -3.38304,-16.5682 -3.55653,-5.2047 -10.49609,-5.2047 -3.03606,0 -6.15887,1.1277 -3.03606,1.0409 -6.33235,3.4698 -3.20955,2.3421 -6.85283,6.0721 -3.64327,3.73 -7.80701,9.0214 l 0,55.9503 -15.26705,0 0,-87.0916 z" />
        </g>
        <g
           id="text3491"
           style="font-style:normal;font-variant:normal;font-weight:normal;font-stretch:normal;font-size:177.65292358px;line-height:125%;font-family:Consolas;-inkscape-font-specification:Consolas;letter-spacing:0px;word-spacing:0px;opacity:1;fill:#ff0000;fill-opacity:1;stroke:none;stroke-width:1px;stroke-linecap:butt;stroke-linejoin:miter;stroke-opacity:1">
          <path
             id="path4488"
             style=""
             d="m 1204.9306,1068.5281 -29.6667,77.8966 q -4.5975,11.884 -9.5419,20.4717 -4.8577,8.5877 -10.6696,14.0526 -5.8119,5.5517 -12.7514,8.154 -6.9396,2.6024 -15.5273,2.6024 -2.2554,0 -4.077,-0.087 -1.8217,-0.087 -3.9903,-0.2602 l 0,-13.7056 q 1.9084,0.2602 4.1638,0.4337 2.2553,0.2602 4.7709,0.2602 4.1638,0 7.7203,-1.2144 3.6433,-1.2144 6.8528,-3.9903 3.2096,-2.689 6.1589,-7.0263 2.9493,-4.3372 5.7251,-10.4961 l -34.7846,-87.0915 17.1755,0 22.0331,57.5984 4.424,13.5321 5.0312,-13.8791 20.3849,-57.2514 16.5683,0 z" />
        </g>
        <g
           id="text3495"
           style="font-style:normal;font-variant:normal;font-weight:normal;font-stretch:normal;font-size:177.65292358px;line-height:125%;font-family:Consolas;-inkscape-font-specification:Consolas;letter-spacing:0px;word-spacing:0px;opacity:1;fill:#ff0000;fill-opacity:1;stroke:none;stroke-width:1px;stroke-linecap:butt;stroke-linejoin:miter;stroke-opacity:1">
          <path
             id="path4485"
             style=""
             d="m 1269.051,1132.0911 q 0,4.5975 -1.5614,8.2407 -1.5614,3.6433 -4.2504,6.5059 -2.6891,2.7758 -6.2457,4.7709 -3.5565,1.9952 -7.6335,3.2963 -3.9902,1.3012 -8.2407,1.9084 -4.2505,0.6072 -8.3275,0.6072 -8.8479,0 -16.308,-0.7807 -7.3733,-0.7807 -14.4863,-2.5156 l 0,-13.8791 q 7.6335,2.1686 15.1803,3.2963 7.5468,1.1277 15.0068,1.1277 10.8431,0 16.0477,-2.9493 5.2047,-2.9494 5.2047,-8.4143 0,-2.3421 -0.8674,-4.1637 -0.7807,-1.9084 -2.9493,-3.5565 -2.1687,-1.7349 -6.7661,-3.5566 -4.5107,-1.8216 -12.4045,-4.1637 -5.8986,-1.7349 -10.9298,-3.9035 -4.9445,-2.2554 -8.5877,-5.2914 -3.6433,-3.0361 -5.7252,-7.1131 -2.0818,-4.077 -2.0818,-9.6286 0,-3.6433 1.6481,-7.9805 1.7349,-4.3373 5.8119,-8.0673 4.077,-3.73 11.0166,-6.1588 6.9395,-2.5156 17.3489,-2.5156 5.1179,0 11.3635,0.6072 6.2456,0.5204 13.0117,1.9084 l 0,13.4454 q -7.1131,-1.7349 -13.5322,-2.5156 -6.3323,-0.8675 -11.0165,-0.8675 -5.6384,0 -9.5419,0.8675 -3.8168,0.8674 -6.2456,2.4288 -2.3421,1.4747 -3.3831,3.5565 -1.0409,1.9952 -1.0409,4.3373 0,2.3421 0.8674,4.2505 0.9542,1.9083 3.3831,3.73 2.5156,1.7349 6.9395,3.5565 4.424,1.7349 11.5371,3.8168 7.7202,2.2553 13.0117,4.7709 5.2914,2.4289 8.5877,5.4649 3.2963,3.0361 4.6842,6.8529 1.4746,3.8167 1.4746,8.6744 z" />
        </g>
        <g
           id="text3499"
           style="font-style:normal;font-variant:normal;font-weight:normal;font-stretch:normal;font-size:177.65292358px;line-height:125%;font-family:Consolas;-inkscape-font-specification:Consolas;letter-spacing:0px;word-spacing:0px;opacity:1;fill:#2f3d97;fill-opacity:1;stroke:none;stroke-width:1px;stroke-linecap:butt;stroke-linejoin:miter;stroke-opacity:1">
          <path
             id="path4482"
             style=""
             d="m 891.44873,1108.6502 q 0,10.1491 -2.86257,18.65 -2.86257,8.4143 -8.24074,14.4864 -5.37816,5.9854 -13.09843,9.3684 -7.72027,3.2963 -17.52241,3.2963 -9.36841,0 -16.82845,-2.8626 -7.37329,-2.9493 -12.57797,-8.5877 -5.11793,-5.6384 -7.89375,-13.9659 -2.68909,-8.3275 -2.68909,-19.1705 0,-10.1491 2.86258,-18.4766 2.86257,-8.4142 8.24073,-14.3996 5.37817,-6.0721 13.09844,-9.3684 7.72026,-3.3831 17.5224,-3.3831 9.36842,0 16.74171,2.9493 7.46003,2.8626 12.57796,8.501 5.20468,5.5517 7.89376,13.8791 2.77583,8.3275 2.77583,19.0839 z m -15.44054,0.6939 q 0,-8.0672 -1.82163,-14.0526 -1.7349,-6.0721 -5.03119,-10.0624 -3.2963,-4.077 -8.06725,-6.0721 -4.68421,-2.0819 -10.49609,-2.0819 -6.76608,0 -11.62378,2.6891 -4.77095,2.6023 -7.89376,7.0263 -3.03606,4.424 -4.51072,10.3226 -1.38791,5.8119 -1.38791,12.231 0,8.0673 1.73489,14.1394 1.82164,6.0721 5.11793,10.1491 3.2963,3.9902 7.98051,6.0721 4.6842,1.9951 10.58284,1.9951 6.76607,0 11.53703,-2.6023 4.85769,-2.6891 7.89376,-7.1131 3.1228,-4.4239 4.51071,-10.2358 1.47466,-5.8986 1.47466,-12.4045 z" />
        </g>
        <g
           id="g3503"
           transform="matrix(0.57953075,0,0,0.54358019,165.27466,421.66655)"
           style="opacity:1;fill:#2f3d97;fill-opacity:1;stroke:#ffffff;stroke-width:0.50660574">
          <g
             id="g3505"
             style="fill:#2f3d97;fill-opacity:1;stroke-width:0.50660574">
            <path
               id="path3507"
               d="m 1229.8462,1321.3995 -76.8816,20.7214 -35.4773,-88.728 75.8651,-26.5943 36.4938,94.6009"
               style="opacity:1;fill:#2f3d97;fill-opacity:1;stroke:#ffffff;stroke-width:7.12672424;stroke-linecap:round;stroke-linejoin:round;stroke-miterlimit:4;stroke-dasharray:none;stroke-dashoffset:0;stroke-opacity:1"
               inkscape:connector-curvature="0"
               sodipodi:nodetypes="ccccc" />
            <path
               inkscape:connector-curvature="0"
               style="opacity:1;fill:#2f3d97;fill-opacity:1;stroke:#ffffff;stroke-width:7.12672424;stroke-linecap:round;stroke-linejoin:round;stroke-miterlimit:4;stroke-dasharray:none;stroke-dashoffset:0;stroke-opacity:1"
               d="m 1193.8163,1226.5784 c 0,0 16.7648,-38.4482 16.7648,-38.4482 0,0 -74.9153,24.6497 -74.9153,24.6497 0,0 -18.7156,40.3991 -18.7156,40.3991 0,0 76.8661,-26.6006 76.8661,-26.6006"
               id="path3509" />
            <path
               inkscape:connector-curvature="0"
               style="opacity:1;fill:#2f3d97;fill-opacity:1;stroke:#ffffff;stroke-width:7.12672424;stroke-linecap:round;stroke-linejoin:round;stroke-miterlimit:4;stroke-dasharray:none;stroke-dashoffset:0;stroke-opacity:1"
               d="m 1248.0814,1285.604 c 0,0 -17.736,35.5057 -17.736,35.5057 0,0 -36.4724,-92.6708 -36.4724,-92.6708 0,0 16.7607,-40.3825 16.7607,-40.3825 0,0 37.4477,97.5476 37.4477,97.5476"
               id="path3511" />
          </g>
        </g>
        <g
           id="text3495-2"
           style="font-style:normal;font-variant:normal;font-weight:normal;font-stretch:normal;font-size:41.18439102px;line-height:125%;font-family:Consolas;-inkscape-font-specification:Consolas;letter-spacing:0px;word-spacing:0px;opacity:1;fill:#ff0000;fill-opacity:1;stroke:none;stroke-width:1px;stroke-linecap:butt;stroke-linejoin:miter;stroke-opacity:1">
          <path
             id="path4429"
             style="font-style:normal;font-variant:normal;font-weight:bold;font-stretch:normal;font-size:27.45626068px;font-family:Consolas;-inkscape-font-specification:'Consolas Bold'"
             d="m 851.67883,1205.2716 0,14.7738 -3.37841,0 0,-14.7738 -4.79948,0 0,-2.7483 12.97737,0 0,2.7483 -4.79948,0 z" />
          <path
             id="path4431"
             style="font-style:normal;font-variant:normal;font-weight:bold;font-stretch:normal;font-size:27.45626068px;font-family:Consolas;-inkscape-font-specification:'Consolas Bold'"
             d="m 871.29236,1212.1893 q 0,0.3351 -0.0268,0.8714 -0.0134,0.5362 -0.0536,1.0055 l -8.95546,0 q 0,0.8982 0.26813,1.5819 0.28153,0.6837 0.77757,1.153 0.50944,0.4558 1.20657,0.6971 0.71054,0.2413 1.56855,0.2413 0.99207,0 2.1182,-0.1475 1.13955,-0.1608 2.35953,-0.5094 l 0,2.6008 q -0.52285,0.1475 -1.13955,0.2682 -0.61669,0.1206 -1.26019,0.2145 -0.64351,0.094 -1.30042,0.134 -0.65692,0.054 -1.27361,0.054 -1.55514,0 -2.78853,-0.4425 -1.23338,-0.4424 -2.09139,-1.3004 -0.85801,-0.8714 -1.31383,-2.145 -0.45581,-1.2736 -0.45581,-2.9494 0,-1.6624 0.45581,-3.0164 0.45582,-1.3675 1.28702,-2.3327 0.83119,-0.9787 2.01095,-1.5016 1.19317,-0.5362 2.65447,-0.5362 1.44788,0 2.56061,0.4558 1.11273,0.4424 1.86349,1.2468 0.75076,0.8044 1.13954,1.9171 0.38879,1.1127 0.38879,2.44 z m -3.32478,-0.4693 q 0.0134,-0.8043 -0.2011,-1.3942 -0.2145,-0.6033 -0.58988,-0.9921 -0.36197,-0.3888 -0.85801,-0.5765 -0.48263,-0.1876 -1.0457,-0.1876 -1.23338,0 -2.02436,0.8311 -0.79098,0.8178 -0.93845,2.3193 l 5.6575,0 z" />
          <path
             id="path4433"
             style="font-style:normal;font-variant:normal;font-weight:bold;font-stretch:normal;font-size:27.45626068px;font-family:Consolas;-inkscape-font-specification:'Consolas Bold'"
             d="m 885.57015,1219.5226 q -0.96526,0.3887 -1.99755,0.5764 -1.03229,0.1877 -2.15843,0.1877 -1.62217,0 -2.90918,-0.4424 -1.28701,-0.4424 -2.18524,-1.3138 -0.89823,-0.8714 -1.38086,-2.1584 -0.46922,-1.287 -0.46922,-2.9763 0,-1.6355 0.50944,-2.9628 0.52285,-1.3272 1.4613,-2.2656 0.93844,-0.9385 2.25227,-1.4479 1.32723,-0.5095 2.9494,-0.5095 1.32723,0 2.22546,0.1475 0.91163,0.1341 1.63558,0.3486 l 0,3.1773 q -0.8312,-0.4156 -1.80986,-0.6435 -0.96526,-0.2279 -1.83668,-0.2279 -0.91163,0 -1.63558,0.3083 -0.72394,0.3084 -1.21998,0.858 -0.49603,0.5497 -0.76416,1.3407 -0.25472,0.7775 -0.25472,1.716 0,0.9786 0.28153,1.7562 0.28154,0.7776 0.79098,1.3272 0.52285,0.5363 1.24679,0.8312 0.72395,0.2816 1.60877,0.2816 0.429,0 0.89823,-0.054 0.48263,-0.067 0.95185,-0.1742 0.48263,-0.1207 0.93844,-0.2682 0.46923,-0.1474 0.87142,-0.3217 l 0,2.9092 z" />
          <path
             id="path4435"
             style="font-style:normal;font-variant:normal;font-weight:bold;font-stretch:normal;font-size:27.45626068px;font-family:Consolas;-inkscape-font-specification:'Consolas Bold'"
             d="m 897.79676,1220.0454 0,-8.875 q 0,-2.2389 -1.66239,-2.2389 -0.83119,0 -1.59536,0.6703 -0.75075,0.6704 -1.59535,1.8233 l 0,8.6203 -3.27116,0 0,-18.9432 3.27116,0 0,4.6654 -0.16088,2.4668 q 0.4156,-0.496 0.8446,-0.8848 0.42901,-0.4022 0.92504,-0.6703 0.49604,-0.2682 1.07251,-0.4022 0.57648,-0.1475 1.27361,-0.1475 1.04569,0 1.82326,0.3486 0.77757,0.3351 1.30042,0.9652 0.52285,0.6167 0.77757,1.5015 0.26813,0.8714 0.26813,1.9574 l 0,9.1431 -3.27116,0 z" />
          <path
             id="path4437"
             style="font-style:normal;font-variant:normal;font-weight:bold;font-stretch:normal;font-size:27.45626068px;font-family:Consolas;-inkscape-font-specification:'Consolas Bold'"
             d="m 912.91916,1220.0454 0,-8.875 q 0,-2.2389 -1.66239,-2.2389 -0.8312,0 -1.59536,0.6703 -0.75076,0.6704 -1.59536,1.8233 l 0,8.6203 -3.27116,0 0,-13.6209 2.82875,0 0.0804,2.011 q 0.4156,-0.5229 0.85801,-0.9519 0.45581,-0.429 0.97866,-0.7239 0.52285,-0.3084 1.12614,-0.4692 0.60328,-0.1609 1.35404,-0.1609 1.0457,0 1.82327,0.3486 0.77757,0.3351 1.30042,0.9652 0.52285,0.6167 0.77757,1.5015 0.26813,0.8714 0.26813,1.9574 l 0,9.1431 -3.27116,0 z" />
          <path
             id="path4439"
             style="font-style:normal;font-variant:normal;font-weight:bold;font-stretch:normal;font-size:27.45626068px;font-family:Consolas;-inkscape-font-specification:'Consolas Bold'"
             d="m 932.18412,1213.1277 q 0,1.6088 -0.45581,2.9494 -0.45582,1.3273 -1.31383,2.2791 -0.85801,0.9519 -2.1048,1.4747 -1.24679,0.5229 -2.84215,0.5229 -1.51492,0 -2.70809,-0.4425 -1.19317,-0.4424 -2.02436,-1.3138 -0.8312,-0.8848 -1.27361,-2.1986 -0.44241,-1.3273 -0.44241,-3.0835 0,-1.6222 0.45582,-2.9494 0.46922,-1.3272 1.32723,-2.2657 0.87141,-0.9384 2.11821,-1.4479 1.24679,-0.5228 2.81534,-0.5228 1.52832,0 2.72149,0.4558 1.19317,0.4424 2.02436,1.3272 0.8312,0.8849 1.2602,2.1987 0.44241,1.3004 0.44241,3.0164 z m -3.40522,0.081 q 0,-2.1182 -0.80438,-3.1774 -0.79097,-1.0725 -2.34611,-1.0725 -0.85801,0 -1.4613,0.3352 -0.60329,0.3352 -0.99207,0.925 -0.38879,0.5765 -0.57648,1.3541 -0.17428,0.7775 -0.17428,1.6624 0,2.1316 0.85801,3.2175 0.85801,1.0725 2.34612,1.0725 0.81778,0 1.42107,-0.3217 0.60329,-0.3352 0.97867,-0.9117 0.37538,-0.5899 0.56307,-1.3808 0.18768,-0.791 0.18768,-1.7026 z" />
          <path
             id="path4441"
             style="font-style:normal;font-variant:normal;font-weight:bold;font-stretch:normal;font-size:27.45626068px;font-family:Consolas;-inkscape-font-specification:'Consolas Bold'"
             d="m 939.43697,1203.6494 -3.84763,0 0,-2.5472 7.19923,0 0,16.396 3.92806,0 0,2.5472 -11.59651,0 0,-2.5472 4.31685,0 0,-13.8488 z" />
          <path
             id="path4443"
             style="font-style:normal;font-variant:normal;font-weight:bold;font-stretch:normal;font-size:27.45626068px;font-family:Consolas;-inkscape-font-specification:'Consolas Bold'"
             d="m 962.42891,1213.1277 q 0,1.6088 -0.45581,2.9494 -0.45582,1.3273 -1.31383,2.2791 -0.85801,0.9519 -2.1048,1.4747 -1.24679,0.5229 -2.84215,0.5229 -1.51492,0 -2.70809,-0.4425 -1.19317,-0.4424 -2.02436,-1.3138 -0.8312,-0.8848 -1.27361,-2.1986 -0.44241,-1.3273 -0.44241,-3.0835 0,-1.6222 0.45582,-2.9494 0.46922,-1.3272 1.32723,-2.2657 0.87141,-0.9384 2.11821,-1.4479 1.24679,-0.5228 2.81534,-0.5228 1.52832,0 2.72149,0.4558 1.19317,0.4424 2.02436,1.3272 0.8312,0.8849 1.2602,2.1987 0.44241,1.3004 0.44241,3.0164 z m -3.40522,0.081 q 0,-2.1182 -0.80438,-3.1774 -0.79098,-1.0725 -2.34612,-1.0725 -0.858,0 -1.46129,0.3352 -0.60329,0.3352 -0.99207,0.925 -0.38879,0.5765 -0.57648,1.3541 -0.17428,0.7775 -0.17428,1.6624 0,2.1316 0.85801,3.2175 0.85801,1.0725 2.34611,1.0725 0.81779,0 1.42108,-0.3217 0.60329,-0.3352 0.97867,-0.9117 0.37537,-0.5899 0.56306,-1.3808 0.18769,-0.791 0.18769,-1.7026 z" />
          <path
             id="path4445"
             style="font-style:normal;font-variant:normal;font-weight:bold;font-stretch:normal;font-size:27.45626068px;font-family:Consolas;-inkscape-font-specification:'Consolas Bold'"
             d="m 975.50013,1208.8109 q 0.37538,0.4692 0.52285,0.992 0.16087,0.5095 0.16087,1.0457 0,1.1396 -0.40219,2.011 -0.38878,0.8714 -1.11273,1.4613 -0.71054,0.5899 -1.71601,0.8982 -0.99208,0.295 -2.19865,0.295 -0.71054,0 -1.31382,-0.1341 -0.60329,-0.1475 -0.91164,-0.3352 -0.22791,0.2279 -0.38878,0.5095 -0.16088,0.2681 -0.16088,0.6167 0,0.2145 0.10725,0.429 0.10725,0.2145 0.30835,0.3888 0.2145,0.1608 0.49603,0.2681 0.29494,0.1072 0.65692,0.1206 l 3.23093,0.1207 q 1.08592,0.027 1.95733,0.2815 0.88483,0.2413 1.51493,0.6972 0.6301,0.4558 0.96525,1.1127 0.34857,0.6435 0.34857,1.4747 0,0.9518 -0.429,1.7964 -0.42901,0.8447 -1.30042,1.4613 -0.85801,0.6301 -2.14502,0.9921 -1.28701,0.362 -2.98962,0.362 -1.64899,0 -2.84216,-0.2681 -1.17976,-0.2548 -1.94392,-0.724 -0.75076,-0.4692 -1.11273,-1.1261 -0.36197,-0.6435 -0.36197,-1.4211 0,-0.4692 0.12065,-0.8714 0.12066,-0.4022 0.36198,-0.7776 0.24131,-0.362 0.60328,-0.7105 0.36198,-0.3486 0.85801,-0.6971 -0.65691,-0.3754 -1.00548,-0.9653 -0.33516,-0.5899 -0.33516,-1.2602 0,-0.4558 0.12066,-0.8446 0.12066,-0.4022 0.30835,-0.7642 0.20109,-0.3619 0.45581,-0.6971 0.25473,-0.3352 0.53626,-0.6569 -0.49604,-0.4961 -0.8312,-1.1932 -0.32175,-0.7105 -0.32175,-1.7696 0,-1.1396 0.40219,-2.0244 0.4156,-0.8982 1.13954,-1.5015 0.72395,-0.6167 1.71602,-0.925 1.00548,-0.3218 2.18524,-0.3218 0.60329,0 1.15295,0.067 0.56307,0.054 1.01888,0.2011 l 4.71905,0 0,2.3864 -2.14502,0 z m -7.70867,13.0444 q 0,0.7909 0.79098,1.1663 0.80438,0.3754 2.25227,0.3754 0.92504,0 1.55514,-0.1743 0.6435,-0.1743 1.0457,-0.4558 0.40219,-0.2815 0.57647,-0.6569 0.17428,-0.3754 0.17428,-0.7776 0,-0.3619 -0.17428,-0.6167 -0.16088,-0.2413 -0.46922,-0.4156 -0.29494,-0.1608 -0.71054,-0.2547 -0.40219,-0.08 -0.89823,-0.1072 l -2.88237,-0.054 q -0.38878,0.2682 -0.64351,0.5095 -0.24131,0.2413 -0.38878,0.4692 -0.13406,0.2413 -0.18769,0.4826 -0.0402,0.2413 -0.0402,0.5095 z m 0.54966,-10.9262 q 0,1.0859 0.6301,1.7294 0.64351,0.6301 1.78305,0.6301 0.60329,0 1.0457,-0.2011 0.45581,-0.2011 0.75076,-0.5363 0.29494,-0.3351 0.44241,-0.7775 0.14747,-0.4424 0.14747,-0.9251 0,-1.1395 -0.64351,-1.7696 -0.6301,-0.6435 -1.76964,-0.6435 -0.60329,0 -1.05911,0.2011 -0.44241,0.2011 -0.73735,0.5496 -0.29494,0.3352 -0.44241,0.791 -0.14747,0.4558 -0.14747,0.9519 z" />
          <path
             id="path4447"
             style="font-style:normal;font-variant:normal;font-weight:bold;font-stretch:normal;font-size:27.45626068px;font-family:Consolas;-inkscape-font-specification:'Consolas Bold'"
             d="m 988.42388,1202.6976 q 0,0.4424 -0.16088,0.8312 -0.16087,0.3887 -0.45581,0.6837 -0.28154,0.2815 -0.67032,0.4558 -0.38879,0.1609 -0.8446,0.1609 -0.45582,0 -0.85801,-0.1609 -0.38879,-0.1743 -0.68373,-0.4558 -0.28153,-0.295 -0.44241,-0.6837 -0.16087,-0.3888 -0.16087,-0.8312 0,-0.4425 0.16087,-0.8312 0.16088,-0.3888 0.44241,-0.6838 0.29494,-0.2949 0.68373,-0.4558 0.40219,-0.1743 0.85801,-0.1743 0.45581,0 0.8446,0.1743 0.38878,0.1609 0.67032,0.4558 0.29494,0.295 0.45581,0.6838 0.16088,0.3887 0.16088,0.8312 z m -3.61972,6.2741 -3.84763,0 0,-2.5472 7.19922,0 0,11.0737 3.92807,0 0,2.5472 -11.59651,0 0,-2.5472 4.31685,0 0,-8.5265 z" />
          <path
             id="path4449"
             style="font-style:normal;font-variant:normal;font-weight:bold;font-stretch:normal;font-size:27.45626068px;font-family:Consolas;-inkscape-font-specification:'Consolas Bold'"
             d="m 1007.3939,1212.1893 q 0,0.3351 -0.027,0.8714 -0.013,0.5362 -0.054,1.0055 l -8.9555,0 q 0,0.8982 0.26813,1.5819 0.28154,0.6837 0.77757,1.153 0.50944,0.4558 1.2066,0.6971 0.7105,0.2413 1.5685,0.2413 0.9921,0 2.1182,-0.1475 1.1396,-0.1608 2.3596,-0.5094 l 0,2.6008 q -0.5229,0.1475 -1.1396,0.2682 -0.6167,0.1206 -1.2602,0.2145 -0.6435,0.094 -1.3004,0.134 -0.6569,0.054 -1.2736,0.054 -1.5552,0 -2.78854,-0.4425 -1.23339,-0.4424 -2.0914,-1.3004 -0.858,-0.8714 -1.31382,-2.145 -0.45582,-1.2736 -0.45582,-2.9494 0,-1.6624 0.45582,-3.0164 0.45582,-1.3675 1.28701,-2.3327 0.8312,-0.9787 2.01096,-1.5016 1.19317,-0.5362 2.65449,-0.5362 1.4479,0 2.5606,0.4558 1.1127,0.4424 1.8635,1.2468 0.7507,0.8044 1.1395,1.9171 0.3888,1.1127 0.3888,2.44 z m -3.3248,-0.4693 q 0.013,-0.8043 -0.2011,-1.3942 -0.2145,-0.6033 -0.5899,-0.9921 -0.3619,-0.3888 -0.858,-0.5765 -0.4826,-0.1876 -1.0457,-0.1876 -1.2333,0 -2.02432,0.8311 -0.79098,0.8178 -0.93845,2.3193 l 5.65747,0 z" />
          <path
             id="path4451"
             style="font-style:normal;font-variant:normal;font-weight:bold;font-stretch:normal;font-size:27.45626068px;font-family:Consolas;-inkscape-font-specification:'Consolas Bold'"
             d="m 1021.8862,1216.0369 q 0,1.1664 -0.5229,1.9976 -0.5094,0.8177 -1.3674,1.3406 -0.8446,0.5094 -1.9305,0.7373 -1.0725,0.2414 -2.1987,0.2414 -1.5015,0 -2.7081,-0.1475 -1.2065,-0.1341 -2.279,-0.4022 l 0,-2.9494 q 1.2602,0.5228 2.5069,0.7642 1.2602,0.2279 2.373,0.2279 1.287,0 1.9171,-0.4022 0.6435,-0.4156 0.6435,-1.0725 0,-0.3084 -0.1341,-0.5631 -0.134,-0.2547 -0.5094,-0.4826 -0.362,-0.2413 -1.0323,-0.4827 -0.6703,-0.2547 -1.7562,-0.563 -1.0055,-0.2816 -1.7697,-0.6301 -0.7507,-0.362 -1.2468,-0.8446 -0.496,-0.4827 -0.7507,-1.1128 -0.2413,-0.6435 -0.2413,-1.5015 0,-0.8312 0.3753,-1.5685 0.3754,-0.7374 1.1128,-1.287 0.7507,-0.5631 1.8635,-0.8849 1.1127,-0.3217 2.6008,-0.3217 1.287,0 2.2791,0.1341 0.992,0.134 1.7562,0.2949 l 0,2.6679 q -1.1663,-0.3754 -2.1986,-0.5229 -1.0189,-0.1609 -2.0244,-0.1609 -1.0055,0 -1.6222,0.362 -0.6033,0.362 -0.6033,1.0055 0,0.3083 0.1207,0.5497 0.1207,0.2413 0.4692,0.4692 0.362,0.2279 0.9921,0.4826 0.6435,0.2413 1.6892,0.5363 1.1798,0.3351 1.9841,0.7239 0.8044,0.3754 1.2871,0.858 0.496,0.4826 0.7105,1.0993 0.2145,0.6167 0.2145,1.4077 z" />
          <path
             id="path4453"
             style="font-style:normal;font-variant:normal;font-weight:bold;font-stretch:normal;font-size:27.45626068px;font-family:Consolas;-inkscape-font-specification:'Consolas Bold'"
             d="m 1053.0024,1208.1003 q 0,1.3675 -0.4558,2.5338 -0.4558,1.153 -1.3541,1.9976 -0.8982,0.8446 -2.2388,1.3138 -1.3407,0.4692 -3.1103,0.4692 l -1.6758,0 0,5.6307 -3.3248,0 0,-17.5221 5.1346,0 q 1.7027,0 3.0031,0.3754 1.3138,0.3619 2.1986,1.0725 0.8982,0.7105 1.3541,1.7562 0.4692,1.0323 0.4692,2.3729 z m -3.4589,0.2279 q 0,-0.6971 -0.2279,-1.2602 -0.2145,-0.5764 -0.6703,-0.9786 -0.4424,-0.4022 -1.1261,-0.6167 -0.6837,-0.2145 -1.6222,-0.2145 l -1.7294,0 0,6.4216 1.8367,0 q 0.858,0 1.5149,-0.2279 0.6569,-0.2413 1.0993,-0.6837 0.4558,-0.4424 0.6837,-1.0591 0.2413,-0.6167 0.2413,-1.3809 z" />
          <path
             id="path4455"
             style="font-style:normal;font-variant:normal;font-weight:bold;font-stretch:normal;font-size:27.45626068px;font-family:Consolas;-inkscape-font-specification:'Consolas Bold'"
             d="m 1064.7866,1211.72 q 0.027,-0.7641 -0.08,-1.3004 -0.094,-0.5362 -0.3218,-0.8848 -0.2145,-0.3486 -0.5362,-0.5094 -0.3218,-0.1609 -0.7374,-0.1609 -0.7239,0 -1.5015,0.6033 -0.7642,0.5899 -1.6892,1.9573 l 0,8.6203 -3.3516,0 0,-13.6209 2.9628,0 0.1207,1.9842 q 0.3351,-0.5229 0.7507,-0.9385 0.429,-0.4156 0.9385,-0.7105 0.5228,-0.3084 1.1529,-0.4692 0.6301,-0.1609 1.3809,-0.1609 1.0323,0 1.8232,0.362 0.8044,0.3485 1.3407,1.0457 0.5496,0.6971 0.8044,1.7562 0.2681,1.0457 0.2279,2.4265 l -3.2846,0 z" />
          <path
             id="path4457"
             style="font-style:normal;font-variant:normal;font-weight:bold;font-stretch:normal;font-size:27.45626068px;font-family:Consolas;-inkscape-font-specification:'Consolas Bold'"
             d="m 1079.1582,1202.6976 q 0,0.4424 -0.1608,0.8312 -0.1609,0.3887 -0.4559,0.6837 -0.2815,0.2815 -0.6703,0.4558 -0.3888,0.1609 -0.8446,0.1609 -0.4558,0 -0.858,-0.1609 -0.3888,-0.1743 -0.6837,-0.4558 -0.2815,-0.295 -0.4424,-0.6837 -0.1609,-0.3888 -0.1609,-0.8312 0,-0.4425 0.1609,-0.8312 0.1609,-0.3888 0.4424,-0.6838 0.2949,-0.2949 0.6837,-0.4558 0.4022,-0.1743 0.858,-0.1743 0.4558,0 0.8446,0.1743 0.3888,0.1609 0.6703,0.4558 0.295,0.295 0.4559,0.6838 0.1608,0.3887 0.1608,0.8312 z m -3.6197,6.2741 -3.8476,0 0,-2.5472 7.1992,0 0,11.0737 3.9281,0 0,2.5472 -11.5965,0 0,-2.5472 4.3168,0 0,-8.5265 z" />
          <path
             id="path4459"
             style="font-style:normal;font-variant:normal;font-weight:bold;font-stretch:normal;font-size:27.45626068px;font-family:Consolas;-inkscape-font-specification:'Consolas Bold'"
             d="m 1093.8784,1220.0454 -3.7672,0 -5.4027,-13.6209 3.6465,0 2.8288,7.7221 0.8446,2.4936 0.8312,-2.3863 2.8555,-7.8294 3.5125,0 -5.3492,13.6209 z" />
          <path
             id="path4461"
             style="font-style:normal;font-variant:normal;font-weight:bold;font-stretch:normal;font-size:27.45626068px;font-family:Consolas;-inkscape-font-specification:'Consolas Bold'"
             d="m 1109.9259,1220.0454 -0.081,-1.783 q -0.429,0.4558 -0.8982,0.8446 -0.4692,0.3753 -1.0323,0.6569 -0.5631,0.2815 -1.2334,0.429 -0.6569,0.1609 -1.4479,0.1609 -1.0457,0 -1.8366,-0.3084 -0.791,-0.3083 -1.3273,-0.858 -0.5362,-0.5497 -0.8178,-1.3272 -0.2681,-0.7776 -0.2681,-1.716 0,-0.9653 0.4022,-1.7831 0.4156,-0.8178 1.2468,-1.4077 0.8446,-0.5898 2.0914,-0.925 1.2602,-0.3352 2.9494,-0.3352 l 1.783,0 0,-0.8178 q 0,-0.5228 -0.1474,-0.9384 -0.1475,-0.429 -0.4827,-0.7239 -0.3217,-0.295 -0.8446,-0.4559 -0.5228,-0.1608 -1.287,-0.1608 -1.2065,0 -2.3863,0.2815 -1.1664,0.2681 -2.2657,0.7642 l 0,-2.6143 q 0.9787,-0.3888 2.2523,-0.6435 1.287,-0.2547 2.6679,-0.2547 1.5149,0 2.6008,0.2949 1.0859,0.2816 1.783,0.858 0.7106,0.5765 1.0457,1.4479 0.3352,0.858 0.3352,2.011 l 0,9.304 -2.8019,0 z m -0.4693,-6.0195 -1.9975,0 q -0.8312,0 -1.4077,0.1609 -0.5764,0.1609 -0.9384,0.4424 -0.362,0.2816 -0.5363,0.6569 -0.1609,0.362 -0.1609,0.7776 0,0.8312 0.5363,1.2736 0.5363,0.429 1.4613,0.429 0.6837,0 1.4211,-0.496 0.7373,-0.496 1.6221,-1.4211 l 0,-1.8233 z" />
          <path
             id="path4463"
             style="font-style:normal;font-variant:normal;font-weight:bold;font-stretch:normal;font-size:27.45626068px;font-family:Consolas;-inkscape-font-specification:'Consolas Bold'"
             d="m 1127.743,1219.9113 q -0.8849,0.2011 -1.7831,0.3218 -0.8982,0.1207 -1.7026,0.1207 -1.3406,0 -2.3193,-0.2816 -0.9653,-0.2815 -1.6088,-0.858 -0.6301,-0.5765 -0.9384,-1.4613 -0.295,-0.8982 -0.295,-2.1316 l 0,-6.6496 -3.6599,0 0,-2.5472 3.6599,0 0,-3.4856 3.3516,-0.8714 0,4.357 5.2956,0 0,2.5472 -5.2956,0 0,6.4083 q 0,1.1663 0.5363,1.7696 0.5362,0.5899 1.7964,0.5899 0.8044,0 1.5686,-0.1341 0.7642,-0.134 1.3943,-0.3083 l 0,2.6142 z" />
          <path
             id="path4465"
             style="font-style:normal;font-variant:normal;font-weight:bold;font-stretch:normal;font-size:27.45626068px;font-family:Consolas;-inkscape-font-specification:'Consolas Bold'"
             d="m 1143.4954,1212.1893 q 0,0.3351 -0.027,0.8714 -0.013,0.5362 -0.054,1.0055 l -8.9555,0 q 0,0.8982 0.2682,1.5819 0.2815,0.6837 0.7775,1.153 0.5095,0.4558 1.2066,0.6971 0.7105,0.2413 1.5686,0.2413 0.992,0 2.1182,-0.1475 1.1395,-0.1608 2.3595,-0.5094 l 0,2.6008 q -0.5229,0.1475 -1.1396,0.2682 -0.6167,0.1206 -1.2602,0.2145 -0.6435,0.094 -1.3004,0.134 -0.6569,0.054 -1.2736,0.054 -1.5551,0 -2.7885,-0.4425 -1.2334,-0.4424 -2.0914,-1.3004 -0.858,-0.8714 -1.3138,-2.145 -0.4558,-1.2736 -0.4558,-2.9494 0,-1.6624 0.4558,-3.0164 0.4558,-1.3675 1.287,-2.3327 0.8312,-0.9787 2.0109,-1.5016 1.1932,-0.5362 2.6545,-0.5362 1.4479,0 2.5606,0.4558 1.1127,0.4424 1.8635,1.2468 0.7508,0.8044 1.1395,1.9171 0.3888,1.1127 0.3888,2.44 z m -3.3247,-0.4693 q 0.013,-0.8043 -0.2011,-1.3942 -0.2145,-0.6033 -0.5899,-0.9921 -0.362,-0.3888 -0.858,-0.5765 -0.4827,-0.1876 -1.0457,-0.1876 -1.2334,0 -2.0244,0.8311 -0.791,0.8178 -0.9384,2.3193 l 5.6575,0 z" />
          <path
             id="path4467"
             style="font-style:normal;font-variant:normal;font-weight:bold;font-stretch:normal;font-size:27.45626068px;font-family:Consolas;-inkscape-font-specification:'Consolas Bold'"
             d="m 1162.6531,1220.0454 0,-17.5221 3.3516,0 0,14.6934 7.4004,0 0,2.8287 -10.752,0 z" />
          <path
             id="path4469"
             style="font-style:normal;font-variant:normal;font-weight:bold;font-stretch:normal;font-size:27.45626068px;font-family:Consolas;-inkscape-font-specification:'Consolas Bold'"
             d="m 1185.015,1202.6976 q 0,0.4424 -0.1609,0.8312 -0.1609,0.3887 -0.4558,0.6837 -0.2815,0.2815 -0.6703,0.4558 -0.3888,0.1609 -0.8446,0.1609 -0.4558,0 -0.858,-0.1609 -0.3888,-0.1743 -0.6838,-0.4558 -0.2815,-0.295 -0.4424,-0.6837 -0.1608,-0.3888 -0.1608,-0.8312 0,-0.4425 0.1608,-0.8312 0.1609,-0.3888 0.4424,-0.6838 0.295,-0.2949 0.6838,-0.4558 0.4022,-0.1743 0.858,-0.1743 0.4558,0 0.8446,0.1743 0.3888,0.1609 0.6703,0.4558 0.2949,0.295 0.4558,0.6838 0.1609,0.3887 0.1609,0.8312 z m -3.6197,6.2741 -3.8477,0 0,-2.5472 7.1993,0 0,11.0737 3.928,0 0,2.5472 -11.5965,0 0,-2.5472 4.3169,0 0,-8.5265 z" />
          <path
             id="path4471"
             style="font-style:normal;font-variant:normal;font-weight:bold;font-stretch:normal;font-size:27.45626068px;font-family:Consolas;-inkscape-font-specification:'Consolas Bold'"
             d="m 1201.7328,1220.0454 0,-9.2772 q 0,-0.5094 -0.027,-0.8848 -0.027,-0.3888 -0.1072,-0.6435 -0.08,-0.2548 -0.2413,-0.3754 -0.1475,-0.1341 -0.4156,-0.1341 -0.4156,0 -0.8178,0.5631 -0.4022,0.5631 -0.9116,1.9171 l 0,8.8348 -2.802,0 0,-9.2772 q 0,-0.5094 -0.027,-0.8848 -0.027,-0.3888 -0.1072,-0.6435 -0.081,-0.2548 -0.2414,-0.3754 -0.1608,-0.1341 -0.429,-0.1341 -0.3485,0 -0.7775,0.5631 -0.429,0.5631 -0.9519,1.9171 l 0,8.8348 -2.8287,0 0,-13.6209 2.4265,0 0.054,1.9842 q 0.2949,-0.6033 0.5898,-1.0323 0.295,-0.429 0.6301,-0.6971 0.3352,-0.2816 0.7106,-0.4022 0.3888,-0.1207 0.8714,-0.1207 1.1395,0 1.7294,0.6033 0.6033,0.5899 0.6837,1.649 0.3218,-0.6033 0.6301,-1.0323 0.3218,-0.429 0.6569,-0.6971 0.3486,-0.2816 0.7374,-0.4022 0.4022,-0.1207 0.8848,-0.1207 1.4881,0 2.1987,1.0457 0.7105,1.0323 0.7105,3.0701 l 0,9.7732 -2.8287,0 z" />
          <path
             id="path4473"
             style="font-style:normal;font-variant:normal;font-weight:bold;font-stretch:normal;font-size:27.45626068px;font-family:Consolas;-inkscape-font-specification:'Consolas Bold'"
             d="m 1215.2598,1202.6976 q 0,0.4424 -0.1609,0.8312 -0.1609,0.3887 -0.4558,0.6837 -0.2816,0.2815 -0.6703,0.4558 -0.3888,0.1609 -0.8446,0.1609 -0.4559,0 -0.858,-0.1609 -0.3888,-0.1743 -0.6838,-0.4558 -0.2815,-0.295 -0.4424,-0.6837 -0.1609,-0.3888 -0.1609,-0.8312 0,-0.4425 0.1609,-0.8312 0.1609,-0.3888 0.4424,-0.6838 0.295,-0.2949 0.6838,-0.4558 0.4021,-0.1743 0.858,-0.1743 0.4558,0 0.8446,0.1743 0.3887,0.1609 0.6703,0.4558 0.2949,0.295 0.4558,0.6838 0.1609,0.3887 0.1609,0.8312 z m -3.6197,6.2741 -3.8477,0 0,-2.5472 7.1992,0 0,11.0737 3.9281,0 0,2.5472 -11.5965,0 0,-2.5472 4.3169,0 0,-8.5265 z" />
          <path
             id="path4475"
             style="font-style:normal;font-variant:normal;font-weight:bold;font-stretch:normal;font-size:27.45626068px;font-family:Consolas;-inkscape-font-specification:'Consolas Bold'"
             d="m 1233.5997,1219.9113 q -0.8848,0.2011 -1.783,0.3218 -0.8983,0.1207 -1.7026,0.1207 -1.3407,0 -2.3194,-0.2816 -0.9652,-0.2815 -1.6087,-0.858 -0.6301,-0.5765 -0.9385,-1.4613 -0.2949,-0.8982 -0.2949,-2.1316 l 0,-6.6496 -3.6599,0 0,-2.5472 3.6599,0 0,-3.4856 3.3516,-0.8714 0,4.357 5.2955,0 0,2.5472 -5.2955,0 0,6.4083 q 0,1.1663 0.5362,1.7696 0.5363,0.5899 1.7965,0.5899 0.8044,0 1.5685,-0.1341 0.7642,-0.134 1.3943,-0.3083 l 0,2.6142 z" />
          <path
             id="path4477"
             style="font-style:normal;font-variant:normal;font-weight:bold;font-stretch:normal;font-size:27.45626068px;font-family:Consolas;-inkscape-font-specification:'Consolas Bold'"
             d="m 1249.3522,1212.1893 q 0,0.3351 -0.027,0.8714 -0.013,0.5362 -0.054,1.0055 l -8.9554,0 q 0,0.8982 0.2681,1.5819 0.2815,0.6837 0.7776,1.153 0.5094,0.4558 1.2066,0.6971 0.7105,0.2413 1.5685,0.2413 0.9921,0 2.1182,-0.1475 1.1396,-0.1608 2.3595,-0.5094 l 0,2.6008 q -0.5228,0.1475 -1.1395,0.2682 -0.6167,0.1206 -1.2602,0.2145 -0.6435,0.094 -1.3004,0.134 -0.6569,0.054 -1.2736,0.054 -1.5552,0 -2.7886,-0.4425 -1.2333,-0.4424 -2.0914,-1.3004 -0.858,-0.8714 -1.3138,-2.145 -0.4558,-1.2736 -0.4558,-2.9494 0,-1.6624 0.4558,-3.0164 0.4558,-1.3675 1.287,-2.3327 0.8312,-0.9787 2.011,-1.5016 1.1932,-0.5362 2.6545,-0.5362 1.4478,0 2.5606,0.4558 1.1127,0.4424 1.8635,1.2468 0.7507,0.8044 1.1395,1.9171 0.3888,1.1127 0.3888,2.44 z m -3.3248,-0.4693 q 0.013,-0.8043 -0.2011,-1.3942 -0.2145,-0.6033 -0.5899,-0.9921 -0.3619,-0.3888 -0.858,-0.5765 -0.4826,-0.1876 -1.0457,-0.1876 -1.2334,0 -2.0243,0.8311 -0.791,0.8178 -0.9385,2.3193 l 5.6575,0 z" />
          <path
             id="path4479"
             style="font-style:normal;font-variant:normal;font-weight:bold;font-stretch:normal;font-size:27.45626068px;font-family:Consolas;-inkscape-font-specification:'Consolas Bold'"
             d="m 1261.1766,1220.0454 -0.08,-2.0109 q -0.429,0.5228 -0.8848,0.9518 -0.4559,0.429 -0.9787,0.7374 -0.5229,0.2949 -1.1261,0.4558 -0.5899,0.1743 -1.3139,0.1743 -1.2065,0 -2.145,-0.4827 -0.9384,-0.4826 -1.5819,-1.3674 -0.6301,-0.8983 -0.9653,-2.1719 -0.3352,-1.2736 -0.3352,-2.8421 0,-1.8769 0.5229,-3.2444 0.5362,-1.3808 1.4747,-2.279 0.9384,-0.9117 2.2255,-1.3407 1.287,-0.4424 2.8019,-0.4424 0.5094,0 1.0189,0.067 0.5228,0.067 0.925,0.1743 l 0,-5.3223 3.2712,0 0,18.9432 -2.8288,0 z m -5.9792,-6.7032 q 0,1.1262 0.1474,1.9305 0.1609,0.791 0.4559,1.3005 0.3083,0.5094 0.7507,0.7507 0.4424,0.2279 1.0055,0.2279 0.8312,0 1.582,-0.6703 0.7507,-0.6703 1.5953,-1.8367 l 0,-5.9524 q -0.3888,-0.1475 -0.9652,-0.2413 -0.5631,-0.094 -1.1396,-0.094 -0.791,0 -1.4211,0.3218 -0.6301,0.3217 -1.0859,0.9116 -0.4424,0.5899 -0.6837,1.4479 -0.2413,0.8446 -0.2413,1.9037 z" />
        </g>
      </g>
      <flowRoot
         xml:space="preserve"
         id="flowRoot4183"
         style="fill:black;stroke:none;stroke-opacity:1;stroke-width:1px;stroke-linejoin:miter;stroke-linecap:butt;fill-opacity:1;font-family:Forte;font-style:normal;font-weight:normal;font-size:15px;line-height:125%;letter-spacing:0px;word-spacing:0px;-inkscape-font-specification:'Forte, Normal';font-stretch:normal;font-variant:normal;text-anchor:start;text-align:start;writing-mode:lr"><flowRegion
           id="flowRegion4185"><rect
             id="rect4187"
             width="53.538086"
             height="73.741135"
             x="89.90358"
             y="-39.939713" /></flowRegion><flowPara
           id="flowPara4189" /></flowRoot>      <flowRoot
         xml:space="preserve"
         id="flowRoot4193"
         style="fill:black;stroke:none;stroke-opacity:1;stroke-width:1px;stroke-linejoin:miter;stroke-linecap:butt;fill-opacity:1;font-family:Forte;font-style:normal;font-weight:normal;font-size:15px;line-height:125%;letter-spacing:0px;word-spacing:0px;-inkscape-font-specification:'Forte, Normal';font-stretch:normal;font-variant:normal;text-anchor:start;text-align:start;writing-mode:lr"><flowRegion
           id="flowRegion4195"><rect
             id="rect4197"
             width="50.507626"
             height="632.35547"
             x="669.73114"
             y="-784.42212" /></flowRegion><flowPara
           id="flowPara4199" /></flowRoot>    </g>
  </g>
</svg>
